<svg width="32" height="32" viewBox="0 0 32 32" fill="none" xmlns="http://www.w3.org/2000/svg">
  <rect width="32" height="32" rx="7" fill="#0f172a"/>
  <!-- TS monogram -->
  <!-- T -->
  <rect x="5" y="4" width="6" height="2" fill="#3b82f6"/>
  <rect x="6" y="6" width="2" height="21" fill="#3b82f6"/>
  
  <!-- S - clean simple S -->
  <path d="M14 5C14 4.44772 14.4477 4 15 4H21C23.2091 4 25 5.79086 25 8C25 9.10457 24.1046 10 23 10H17C15.8954 10 15 10.8954 15 12C15 13.6569 16.3431 15 18 15H22C23.6569 15 25 16.3431 25 18C25 19.6569 23.6569 21 22 21H18C16.3431 21 15 22.3431 15 24C15 25.1046 15.8954 26 17 26H23C24.1046 26 25 26.8954 25 28C25 30.2091 23.2091 32 21 32H15C12.7909 32 11 30.2091 11 28C11 26.8954 11.8954 26 13 26H19C20.6569 26 22 24.6569 22 23C22 21.3431 20.6569 20 19 20H15C13.3431 20 12 18.6569 12 17C12 15.3431 13.3431 14 15 14H19C20.6569 14 22 12.6569 22 11C22 9.34315 20.6569 8 19 8H13C11.3431 8 10 6.65685 10 5C10 4.44772 10.4477 4 11 4H13C14.1046 4 15 4.89543 15 5Z" fill="#3b82f6"/>
</svg>