<svg width="140" height="32" viewBox="0 0 140 32" fill="none" xmlns="http://www.w3.org/2000/svg">
  <!-- TS monogram -->
  <!-- T -->
  <rect x="4" y="4" width="14" height="3" fill="#3b82f6"/>
  <rect x="7.5" y="7" width="3" height="21" fill="#3b82f6"/>
  
  <!-- S - clean simple S -->
  <path d="M24 4C24 2.89543 24.8954 2 26 2H36C38.2091 2 40 3.79086 40 6C40 7.10457 39.1046 8 38 8H28C26.8954 8 26 8.89543 26 10C26 11.6569 27.3431 13 29 13H37C38.6569 13 40 14.3431 40 16C40 17.6569 38.6569 19 37 19H29C27.3431 19 26 20.3431 26 22C26 23.1046 26.8954 24 28 24H38C39.1046 24 40 24.8954 40 26C40 28.2091 38.2091 30 36 30H26C23.7909 30 22 28.2091 22 26C22 24.8954 22.8954 24 24 24H34C35.6569 24 37 22.6569 37 21C37 19.3431 35.6569 18 34 18H26C24.3431 18 23 16.6569 23 15C23 13.3431 24.3431 12 26 12H34C35.6569 12 37 10.6569 37 9C37 7.34315 35.6569 6 34 6H24C22.3431 6 21 4.65685 21 3C21 2.44772 21.4477 2 22 2H24C25.1046 2 26 2.89543 26 4Z" fill="#3b82f6"/>
</svg>